<?xml version="1.0" encoding="utf-8"?>
<!-- Generator: Adobe Illustrator 26.0.1, SVG Export Plug-In . SVG Version: 6.00 Build 0)  -->
<svg version="1.1" id="Layer_1" xmlns="http://www.w3.org/2000/svg" xmlns:xlink="http://www.w3.org/1999/xlink" x="0px" y="0px"
	 viewBox="0 0 1080 1080" style="enable-background:new 0 0 1080 1080;" xml:space="preserve">
<style type="text/css">
	.st0{fill:#F7941D;}
	.st1{fill:#25ABE4;}
	.st2{fill:#FDD20D;}
	.st3{fill:#8CC63E;}
	.st4{fill:#134685;}
</style>
<g>
	<path class="st0" d="M46.33,571.56c-1.08-2.21-2.22-4.39-3.25-6.62c-4.81-10.48-8.35-21.33-9.86-32.81
		c-1.6-12.17-0.96-24.2,2.34-36.01c3.18-11.36,8.4-21.69,15.56-31.15c7.61-10.05,17.41-17.13,28.48-22.68
		c2.95-1.48,6.07-2.66,9.19-3.77c0.77-0.28,1.83,0.24,2.76,0.39c-0.28,0.83-0.33,1.86-0.87,2.46c-3.58,3.94-7.22,7.83-10.92,11.65
		c-7.44,7.67-14.73,15.48-19.97,24.88c-2.78,4.99-4.75,10.3-2.7,16.13c2.22,6.3,6.7,9.3,13.37,9.22c6.58-0.08,12.52-2.53,18.51-4.87
		c4.97-1.94,9.93-3.9,14.93-5.73c1.26-0.46,2.67-0.68,4.01-0.68c2-0.01,4.02,0.41,4.79,2.6c0.73,2.07-0.66,3.61-2.1,4.59
		c-2.89,1.97-5.87,3.99-9.08,5.29c-7.61,3.09-15.49,5.54-23.06,8.73c-3.59,1.52-6.72,4.13-10.05,6.26c-1.09,0.7-2.08,1.58-3.21,2.19
		c-10.27,5.59-15.76,14.51-17.9,25.73c-1.39,7.29-1.1,14.63-0.39,21.98c0.06,0.67,0.01,1.34,0.01,2.02
		C46.73,571.42,46.53,571.49,46.33,571.56z"/>
	<path class="st1" d="M104.84,612.56c3.21-0.77,6.45-1.46,9.63-2.34c7.81-2.14,14.94-5.59,21.21-10.82
		c7.09-5.91,10.37-13.71,11.57-22.55c1.25-9.21,2.16-18.48,3.5-27.68c0.75-5.19,2-10.32,3.17-15.44c0.28-1.22,0.95-2.5,1.81-3.39
		c0.87-0.9,2.35-2.03,3.29-1.82c1.23,0.27,2.86,1.6,3.13,2.76c0.6,2.54,0.73,5.28,0.58,7.91c-0.36,6.11-1.07,12.2-1.51,18.3
		c-0.33,4.63,0.06,9.18,1.23,13.73c1.87,7.28,8.87,9.76,14.16,8.94c5.95-0.91,10.37-4.44,14.27-8.75
		c6.83-7.54,11.9-16.29,16.98-25.02c2.4-4.11,4.61-8.32,7.08-12.38c0.64-1.05,1.95-1.69,2.95-2.52c0.33,1.18,1,2.37,0.92,3.52
		c-0.6,8.69-2.6,17.06-5.67,25.24c-4.05,10.8-10.93,19.65-18.86,27.7c-11.91,12.1-26.29,20.15-42.76,24.21
		c-12.28,3.02-24.79,3.68-37.38,2.23c-3.11-0.36-6.23-0.73-9.34-1.1C104.82,613.05,104.83,612.81,104.84,612.56z"/>
	<path class="st2" d="M49.03,570.04c0.1-8.89,0.01-17.68,2.75-26.23c1.82-5.65,4.86-10.39,9.68-13.99
		c9.14-6.82,19.18-12.05,29.46-16.83c1.82-0.85,4.22-0.81,6.3-0.63c0.99,0.09,2.47,1.38,2.63,2.31c0.18,1.07-0.53,2.93-1.42,3.43
		c-2.66,1.49-5.55,2.65-8.45,3.64c-5.3,1.82-10.28,4.15-14.57,7.83c-4.91,4.2-6.1,10.47-2.97,16c2.51,4.43,9.2,6.52,14.76,4.79
		c7.31-2.27,12.24-7.4,16.39-13.45c2.12-3.09,3.87-6.46,6.16-9.41c1.31-1.69,3.25-3,5.13-4.1c1.69-0.99,3.26,0.3,2.92,2.24
		c-0.18,1.04-0.57,2.11-1.12,3.02c-4.69,7.79-9.32,15.61-14.19,23.29c-8.06,12.68-16.74,24.92-27.13,35.83
		c-1.74,1.83-4.06,3.23-6.34,4.38c-0.97,0.49-2.87,0.24-3.77-0.44c-5.59-4.25-10.81-8.97-14.63-14.9
		C49.45,574.98,49.53,572.33,49.03,570.04z"/>
	<path class="st3" d="M121.94,579.95c6.45,0.02,11.22-3.68,13.12-9.88c1.69-5.53,2.16-11.12,1.81-16.86
		c-0.12-2.04,0.13-4.22,0.77-6.15c1.09-3.26,4.64-3.77,6.47-0.87c1.04,1.66,1.84,3.94,1.66,5.83c-1.17,11.87-3.22,23.59-7.54,34.78
		c-2.19,5.68-6.34,9.72-11.56,12.73c-8.23,4.74-16.95,8.31-26.11,10.75c-1.58,0.42-3.47,0.32-5.08-0.09
		c-6.47-1.61-12.42-4.54-18.25-7.69c-1.9-1.03-1.84-2.9-1.43-4.78c1.13-5.24,4.3-9.42,7.36-13.56
		c11.6-15.66,23.32-31.24,35.09-46.77c1.54-2.03,3.46-3.89,5.56-5.32c2.05-1.4,3.75-0.02,3.55,2.54c-0.23,2.95-1.67,5.38-3.62,7.43
		c-5.01,5.29-9.41,10.99-11.9,17.88c-2.16,5.99-2.25,11.89,2.56,16.91C116.43,578.95,119.01,579.91,121.94,579.95z"/>
	<path class="st1" d="M226.49,494.93c9.62,31.23,3.03,76.53-32.93,106.74c-36.27,30.47-87.08,31.77-124.32,6.52
		c-39.51-26.79-55.15-76.11-39.61-120.23c13.95-39.62,49.25-62.01,75.81-66.16c-1.21,2.63-2.38,4.64-5.59,5.68
		c-39.77,12.78-63.96,39.78-70.55,81c-4.98,31.16,4.4,58.75,25.91,81.9c15.59,16.79,34.98,26.86,57.64,30.04
		c28.75,4.03,54.66-3.18,77.11-21.59c19.49-15.99,31.09-36.73,35.01-61.68c1.91-12.12,1.38-24.17-1.27-36.14
		C222.87,497.29,222.94,497.11,226.49,494.93z"/>
	<path class="st0" d="M176.23,412.16c-2.62-0.56-4.68-1.12-6.78-1.42c-11.15-1.6-22.22-1.8-32.65,3.31
		c-13.65,6.69-21.14,17.93-23.28,32.8c-1.28,8.93-0.83,17.73,3.39,25.98c5,9.77,13.13,16.11,22.84,20.67
		c2.47,1.16,5.08,2.06,7.67,2.94c1.27,0.43,1.76,1.08,1.47,2.39c-0.22,0.98-0.35,1.99-0.54,2.98c-0.54,2.95-0.54,3.02-3.63,2.77
		c-8.34-0.7-15.58-4.15-22.03-9.26c-12.13-9.61-19.28-22.15-20.88-37.54c-1.12-10.8,1.65-20.92,7.02-30.31
		c4.74-8.28,10.81-15.3,19.21-20.1c13.76-7.85,34.27-6.35,46.69,3.45C175.13,411.11,175.46,411.46,176.23,412.16z"/>
	<path class="st2" d="M145.14,529.61c10.46-24.9,11.59-49.73-0.33-74.81c0.66,0.2,0.95,0.23,1.17,0.36
		c11.59,7.12,19.29,16.7,19.01,31.03c-0.11,5.68-1.8,11.08-3.85,16.35C157.29,512.44,151.82,521.37,145.14,529.61z"/>
	<path class="st0" d="M82.76,487.72c-0.05,6.65-4.84,11.92-10.72,11.81c-6.65-0.13-11.81-5.47-11.59-12.25
		c0.17-5.52,4.47-11.13,10.82-11.01C77.47,476.38,82.81,481.65,82.76,487.72z"/>
	<path class="st1" d="M176.67,576.09c-5.65-0.02-10.65-4.69-10.95-9.62c-0.36-5.78,5.18-11.9,11.51-12.04
		c6.11-0.13,11.59,4.97,11.5,10.87C188.64,570.74,183.78,576.31,176.67,576.09z"/>
	<path class="st0" d="M182.41,447.85c5.65,3.55,8.94,11.91,7.55,18.78c-1.08,5.35-3.54,10.02-6.76,14.35
		c-3.87,5.19-11.55,12.75-15.89,15.47C174.45,480.71,183.09,465.77,182.41,447.85z"/>
	<path class="st3" d="M122.95,556.77c5.03-0.41,11.11,3.73,10.96,10.24c-0.11,4.92-4.83,9.74-10.15,9.94
		c-5.68,0.21-10.96-4.38-11.1-9.64C112.53,562.04,117.5,556.94,122.95,556.77z"/>
	<path class="st2" d="M95.27,538.39c-0.14,5.32-5.25,10.06-10.63,9.86c-5.41-0.2-10.14-5.01-10.06-10.23
		c0.09-5.56,5.2-10.28,10.9-10.06C90.83,528.17,95.41,533.04,95.27,538.39z"/>
	<path class="st1" d="M142.67,436.53c9.01-1.23,17.96-1.97,26.47,2.07c6.74,3.19,9.18,9.18,8.82,16.17
		c-0.02,0.41-0.21,0.8-0.45,1.66C168.34,445.11,155.91,440.17,142.67,436.53z"/>
	<path class="st3" d="M224.99,454.42c-3.7,0.53-7.45,0.82-11.07,1.66c-3.7,0.86-7.43,1.91-10.86,3.5c-4.6,2.14-5.31,5.73-2.13,9.66
		c1.74,2.14,3.99,3.86,6.25,5.98c-4.59-1.43-8.77-3.08-11.8-6.69c-1.99-2.37-2.27-5.05-0.9-7.9c2.69-5.57,7.07-8.85,13.2-9.64
		C213.8,450.21,219.52,451.73,224.99,454.42z"/>
	<path class="st1" d="M197.14,489.26c3.04-0.41,6.14-0.58,9.12-1.27c4.12-0.96,8.34-1.89,12.19-3.57c5.45-2.38,6.1-6.36,2.14-10.84
		c-1.65-1.86-3.69-3.37-5.86-5.33c4.45,1.49,8.46,2.97,11.48,6.27c2.37,2.58,2.76,5.66,1.24,8.82c-3.46,7.17-10.51,10.66-19.6,9.35
		c-3.66-0.53-7.22-1.7-10.82-2.58C197.06,489.82,197.1,489.54,197.14,489.26z"/>
	<path class="st3" d="M129.14,433.4c2.88-0.03,5.08,2.11,5.12,4.97c0.04,2.87-2.11,5.08-4.97,5.12c-2.88,0.04-5.07-2.09-5.11-4.97
		C124.14,435.63,126.28,433.43,129.14,433.4z"/>
	<path class="st3" d="M191.85,441.86c-0.11,1.8-1.68,3.1-3.56,2.95c-1.8-0.15-3.02-1.57-2.9-3.36c0.12-1.72,1.62-3.1,3.31-3.04
		C190.43,438.47,191.95,440.14,191.85,441.86z"/>
</g>
<g>
	<g>
		<path class="st4" d="M305.06,480.73h30.32v42.09h-14.94v-9.39c-4.3,7.01-12.56,10.98-23.53,10.98
			c-21.72,0-35.87-15.73-35.87-40.62c0-27.5,16.07-41.75,42.32-41.75c10.75,0,21.38,2.6,29.42,7.01v24.55h-18.33v-12.9
			c-3.73-0.79-7.47-1.24-10.97-1.24c-14.37,0-21.5,8.94-21.5,24.55c0,16.97,7.58,23.87,19.01,23.87c9.17,0,15.95-3.73,17.65-14.26
			h-13.58V480.73z"/>
		<path class="st4" d="M414.47,472.13c0,16.86-13.24,27.95-33.61,27.95h-9.84v22.74h-3.4h-13.92h-3.51v-63.82h-7.35v-15.39h38.13
			C401.34,443.62,414.47,454.59,414.47,472.13z M380.3,483.79c7.92,0,13.35-4.87,13.35-11.54c0-7.58-5.43-12.22-13.35-12.22h-9.28
			v23.76H380.3z"/>
		<path class="st4" d="M488.24,499.29c0,14.82-14.03,25.23-33.72,25.23c-14.94,0-25.57-4.75-34.51-11.65l8.03-15.16
			c7.92,5.54,15.95,9.28,26.36,9.28c6.9,0,12.67-2.38,12.67-7.13c0-5.09-6.11-7.13-16.97-8.83c-20.37-3.17-28.85-11.77-28.85-25.46
			c0-15.05,11.88-23.65,27.04-23.65c8.83,0,14.94,3.17,19.01,7.47l0.57-0.11v-5.66h18.78v26.25h-18.78
			c-1.47-6.56-7.81-10.07-15.05-10.07c-7.13,0-10.3,2.6-10.3,6.45c0,4.19,2.49,6,13.01,7.69C476.58,477,488.24,483.67,488.24,499.29
			z"/>
		<path class="st4" d="M584.71,471.45c0,16.86-13.24,27.95-33.61,27.95h-9.84v22.74h-3.4h-13.92h-3.51v-63.82h-7.35v-15.39h38.13
			C571.59,442.94,584.71,453.92,584.71,471.45z M550.54,483.11c7.92,0,13.35-4.87,13.35-11.54c0-7.58-5.43-12.22-13.35-12.22h-9.28
			v23.76H550.54z"/>
		<path class="st4" d="M654.98,506.87h8.03v15.28h-23.53l-4.87-15.39h-27.16l-4.87,15.39h-23.19v-15.28h7.81l16.07-48.65h-6.79
			v-15.27h37.56L654.98,506.87z M612.43,491.37h17.42l-8.71-27.38L612.43,491.37z"/>
		<path class="st4" d="M741.65,521.24c-3.28,1.47-6.68,2.26-12.79,2.26c-8.83,0-13.8-3.51-17.2-11.43l-6.56-14.6h-2.26h-8.03v24.67
			h-3.28h-14.14h-3.51v-63.82h-7.35v-15.39h37.34c21.16,0,34.62,9.5,34.62,27.04c0,9.05-5.32,17.2-14.03,22.18l3.4,7.58
			c2.38,5.32,4.3,6.45,7.69,6.45c1.36,0,3.06-0.23,4.64-0.68L741.65,521.24z M694.8,481.75h8.71c8.83,0,14.03-3.17,14.03-11.31
			c0-7.58-4.98-11.09-14.03-11.09h-8.71V481.75z"/>
		<path class="st4" d="M747.87,458.22v-15.27h36.09v15.27h-7.69v1.47l0.11,45.71v1.47h7.58v15.28h-36.09v-15.28h7.58v-48.65H747.87z
			"/>
		<path class="st4" d="M906.5,458.22h-8.37l-16.52,63.93h-22.29l-11.2-48.31l-11.2,48.31h-22.18l-15.95-63.93h-8.37v-15.27h25.46
			l11.09,56.01l12.11-56.01h18.1l12.22,55.78l10.97-55.78h26.14V458.22z"/>
		<path class="st4" d="M972.8,506.87h8.03v15.28H957.3l-4.87-15.39h-27.16l-4.87,15.39h-23.19v-15.28h7.81l16.07-48.65h-6.79v-15.27
			h37.56L972.8,506.87z M930.26,491.37h17.42l-8.71-27.38L930.26,491.37z"/>
		<path class="st4" d="M1059.47,521.24c-3.28,1.47-6.68,2.26-12.79,2.26c-8.83,0-13.8-3.51-17.2-11.43l-6.56-14.6h-2.26h-8.03v24.67
			h-3.28H995.2h-3.51v-63.82h-7.35v-15.39h37.34c21.16,0,34.62,9.5,34.62,27.04c0,9.05-5.32,17.2-14.03,22.18l3.4,7.58
			c2.38,5.32,4.3,6.45,7.69,6.45c1.36,0,3.05-0.23,4.64-0.68L1059.47,521.24z M1012.63,481.75h8.71c8.83,0,14.03-3.17,14.03-11.31
			c0-7.58-4.98-11.09-14.03-11.09h-8.71V481.75z"/>
	</g>
	<g>
		<path d="M290.62,598.82c-5.08,0-9.38-1.14-12.93-3.43c-3.54-2.29-6.02-5.47-7.42-9.54l7.46-4.37c2.11,5.93,6.48,8.9,13.12,8.9
			c3.22,0,5.65-0.63,7.31-1.89c1.66-1.26,2.49-2.94,2.49-5.05c0-2.11-0.88-3.74-2.64-4.9c-1.76-1.15-4.87-2.41-9.35-3.77
			c-4.57-1.36-8.27-2.96-11.08-4.82c-3.42-2.41-5.13-5.96-5.13-10.63s1.66-8.37,4.97-11.08c3.27-2.77,7.26-4.15,11.99-4.15
			c4.17,0,7.85,1.02,11.05,3.05c3.19,2.04,5.64,4.89,7.35,8.56l-7.31,4.22c-2.21-4.92-5.91-7.39-11.08-7.39
			c-2.51,0-4.52,0.59-6.03,1.77c-1.51,1.18-2.26,2.78-2.26,4.79c0,1.96,0.75,3.51,2.26,4.63c1.51,1.13,4.3,2.33,8.37,3.58
			c2.51,0.85,3.97,1.36,4.37,1.51c0.65,0.2,1.96,0.7,3.92,1.51c1.61,0.65,2.89,1.36,3.85,2.11c3.92,3.07,5.73,6.68,5.43,10.85
			c0,4.77-1.73,8.57-5.2,11.38C300.75,597.44,296.25,598.82,290.62,598.82z"/>
		<path d="M333.36,575.3v14.25h23.37v8.29H324.7v-52.77h31.66v8.29h-22.99v13.72h21.11v8.22H333.36z"/>
		<path d="M412.52,597.84h-9.5l-11.16-19.22h-10.25v19.22h-8.67v-52.77h21.11c4.72,0,8.72,1.66,11.99,4.97
			c3.32,3.22,4.97,7.21,4.97,11.99c0,3.37-0.97,6.44-2.9,9.24c-1.93,2.79-4.46,4.81-7.58,6.07L412.52,597.84z M394.05,553.21h-12.44
			v17.64h12.44c2.31,0,4.27-0.85,5.88-2.56c1.61-1.71,2.41-3.8,2.41-6.26c0-2.46-0.81-4.55-2.41-6.26
			C398.32,554.07,396.36,553.21,394.05,553.21z"/>
		<path d="M450.51,597.84h-10.4l-18.32-52.77h9.5l14.02,42.29l14.1-42.29h9.42L450.51,597.84z"/>
		<path d="M482.78,597.84v-52.77h8.67v52.77H482.78z"/>
		<path d="M535.24,598.82c-7.94,0-14.52-2.61-19.75-7.84c-5.23-5.33-7.84-11.84-7.84-19.53c0-7.74,2.61-14.22,7.84-19.45
			c5.18-5.28,11.76-7.92,19.75-7.92c4.77,0,9.18,1.13,13.23,3.39c4.04,2.26,7.2,5.33,9.46,9.2l-7.54,4.37
			c-1.41-2.61-3.45-4.69-6.14-6.22c-2.69-1.53-5.69-2.3-9.01-2.3c-5.58,0-10.15,1.78-13.72,5.35c-3.47,3.52-5.2,8.04-5.2,13.57
			c0,5.53,1.74,10.05,5.2,13.57c3.57,3.57,8.14,5.35,13.72,5.35c3.32,0,6.33-0.77,9.05-2.3s4.75-3.61,6.11-6.22l7.54,4.3
			c-2.16,3.82-5.3,6.91-9.42,9.27C544.54,597.69,540.12,598.82,535.24,598.82z"/>
		<path d="M582.06,575.3v14.25h23.37v8.29h-32.04v-52.77h31.66v8.29h-22.99v13.72h21.11v8.22H582.06z"/>
		<path d="M639.2,598.82c-5.08,0-9.38-1.14-12.93-3.43c-3.54-2.29-6.02-5.47-7.42-9.54l7.46-4.37c2.11,5.93,6.48,8.9,13.12,8.9
			c3.22,0,5.65-0.63,7.31-1.89c1.66-1.26,2.49-2.94,2.49-5.05c0-2.11-0.88-3.74-2.64-4.9c-1.76-1.15-4.87-2.41-9.35-3.77
			c-4.57-1.36-8.27-2.96-11.08-4.82c-3.42-2.41-5.13-5.96-5.13-10.63s1.66-8.37,4.97-11.08c3.27-2.77,7.26-4.15,11.99-4.15
			c4.17,0,7.85,1.02,11.05,3.05c3.19,2.04,5.64,4.89,7.35,8.56l-7.31,4.22c-2.21-4.92-5.91-7.39-11.08-7.39
			c-2.51,0-4.52,0.59-6.03,1.77c-1.51,1.18-2.26,2.78-2.26,4.79c0,1.96,0.75,3.51,2.26,4.63c1.51,1.13,4.3,2.33,8.37,3.58
			c2.51,0.85,3.97,1.36,4.37,1.51c0.65,0.2,1.96,0.7,3.92,1.51c1.61,0.65,2.89,1.36,3.85,2.11c3.92,3.07,5.73,6.68,5.43,10.85
			c0,4.77-1.73,8.57-5.2,11.38C649.33,597.44,644.83,598.82,639.2,598.82z"/>
		<path d="M700.11,545.07h19.45c4.98,0,9.12,1.66,12.44,4.97c3.37,3.32,5.05,7.44,5.05,12.36c0,4.88-1.68,9-5.05,12.36
			c-3.32,3.32-7.46,4.98-12.44,4.98h-10.78v18.09h-8.67V545.07z M708.78,571.61h10.78c2.56,0,4.67-0.87,6.33-2.6
			c1.66-1.73,2.49-3.93,2.49-6.59s-0.83-4.86-2.49-6.6c-1.66-1.73-3.77-2.6-6.33-2.6h-10.78V571.61z"/>
		<path d="M775.95,597.84h-10.4l-18.32-52.77h9.5l14.02,42.29l14.1-42.29h9.42L775.95,597.84z"/>
		<path d="M804.07,545.07h38.44v8.29h-14.85v44.48h-8.67v-44.48h-14.93V545.07z"/>
		<path d="M853.67,587.44c1.56,0,2.89,0.55,4,1.66c1.11,1.11,1.66,2.44,1.66,4s-0.55,2.89-1.66,4s-2.44,1.66-4,1.66
			c-1.56,0-2.89-0.55-4-1.66c-1.11-1.11-1.66-2.44-1.66-4s0.54-2.89,1.62-4C850.72,587.99,852.06,587.44,853.67,587.44z"/>
		<path d="M911.49,545.07v44.48h21.48v8.29h-30.15v-52.77H911.49z"/>
		<path d="M938.25,545.07h38.44v8.29h-14.85v44.48h-8.67v-44.48h-14.92V545.07z"/>
		<path d="M991.39,545.07h20.73c7.24,0,13.24,2.54,18.02,7.61c4.82,5.08,7.24,11.33,7.24,18.77c0,7.39-2.41,13.65-7.24,18.77
			c-4.77,5.08-10.78,7.61-18.02,7.61h-20.73V545.07z M1000.06,589.55h12.06c4.98,0,9.02-1.71,12.14-5.13
			c3.17-3.42,4.75-7.74,4.75-12.97c0-5.23-1.58-9.55-4.75-12.96c-3.11-3.42-7.16-5.13-12.14-5.13h-12.06V589.55z"/>
		<path d="M1053.82,587.44c1.56,0,2.89,0.55,4,1.66c1.11,1.11,1.66,2.44,1.66,4s-0.55,2.89-1.66,4s-2.44,1.66-4,1.66
			c-1.56,0-2.89-0.55-4-1.66s-1.66-2.44-1.66-4s0.54-2.89,1.62-4C1050.86,587.99,1052.21,587.44,1053.82,587.44z"/>
	</g>
</g>
</svg>
