<svg width="31" height="31" viewBox="0 0 31 31" fill="none" xmlns="http://www.w3.org/2000/svg">
<g clip-path="url(#clip0_85_1710)">
<path d="M12.7339 26.7248C11.6165 26.7248 10.5659 26.2897 9.77577 25.4996C9.45723 25.1811 9.45723 24.6646 9.77577 24.346C10.0943 24.0276 10.6108 24.0276 10.9294 24.346C11.4114 24.8281 12.0523 25.0935 12.734 25.0935C13.4156 25.0935 14.0565 24.8281 14.5386 24.346L28.623 10.2616C29.1051 9.77959 29.3705 9.13864 29.3705 8.457C29.3705 7.77536 29.1051 7.13447 28.623 6.65246C27.6279 5.65725 26.0088 5.65731 25.0139 6.6524L17.1669 14.4993C16.8483 14.8178 16.332 14.8178 16.0133 14.4993C15.6948 14.1808 15.6948 13.6643 16.0133 13.3457L23.8603 5.49867C25.4914 3.86772 28.1453 3.86754 29.7766 5.49867C31.4078 7.12987 31.4078 9.78395 29.7766 11.4151L15.6922 25.4996C14.902 26.2897 13.8514 26.7248 12.7339 26.7248Z" fill="#2D527C"/>
<path d="M17.4362 22.4807L15.0548 24.8621C13.7396 26.1773 11.6073 26.1773 10.2921 24.8621L1.80012 16.3702C0.48492 15.055 0.48492 12.9227 1.80012 11.6075C3.11532 10.2923 5.24767 10.2923 6.56287 11.6075L17.4362 22.4807Z" fill="#CEE8FA"/>
<path d="M12.6734 26.664C11.5559 26.664 10.5054 26.2288 9.71525 25.4388L1.22335 16.9468C-0.407784 15.3156 -0.407784 12.6616 1.22335 11.0304C2.01361 10.2403 3.0641 9.80518 4.1815 9.80518C5.29901 9.80518 6.3495 10.2403 7.13964 11.0304L18.013 21.9037C18.3315 22.2223 18.3315 22.7387 18.013 23.0573L15.6316 25.4387C14.8413 26.2288 13.7908 26.664 12.6734 26.664ZM4.1815 11.4366C3.49986 11.4366 2.85897 11.702 2.37689 12.1841C1.38186 13.1791 1.38186 14.7982 2.37689 15.7933L10.8688 24.2851C11.3508 24.7672 11.9916 25.0326 12.6734 25.0326C13.355 25.0326 13.9959 24.7672 14.478 24.2851L16.2826 22.4805L5.98604 12.1841C5.50402 11.702 4.86319 11.4366 4.1815 11.4366Z" fill="#2D527C"/>
</g>
<defs>
<clipPath id="clip0_85_1710">
<rect width="31" height="31" fill="white"/>
</clipPath>
</defs>
</svg>
